Patient4_TMGait_0pt4_01_left_21_EMG.mot
version=1
nRows=20
nColumns=33
inDegrees=no
endheader
time	1LAddLong	2LGlutMax	3LGlutMed	4LIliopsoas	5LSemiMemb	6LBicFemLong	7LRecFem	8LVastMed	9LVastLat	10LGasMed	11LTibAnt	12lTibPost	13LPeroneusLong	14LSol	15LExtDigLong	16LFlexDigLong	17RAddLong	18RGlutMax	19RGlutMed	20RIliopsoas	21RSemiMemb	22RBicFemLong	23RRecFem	24RVastMed	25RVastLat	26RGasMed	27RTibAnt	28RTibPost	29RPeroneusLong	30RSol	31RExtDigLong	32RFlexDigLong
26.04	0.002899	-0.029449	-0.20294	0.002899	0.062256	0.060883	-0.040588	0.002899	0.019836	0.053253	0.084076	-0.012054	-0.022583	0.31799	0.35721	-0.015106	-0.14679	-0.088043	1.0005	-0.067139	0.20844	-0.073853	0.41321	0.38132	0.046844	-0.001526	-0.063324	-0.010681	-0.14526	-0.035858	-0.003662	-0.007629
26.041	0.001831	-0.036163	-0.26657	0.019379	0.037079	0.036011	-0.050812	0.010071	0.032959	0.029449	-0.007019	-0.011444	0.038605	0.18982	-0.15091	-0.010834	-0.13428	-0.13001	1.2972	-0.32349	0.48904	-0.081329	0.26535	0.15121	-0.09491	-0.001526	-0.051727	-0.014801	-0.056763	0.033264	-0.002747	-0.010834
26.042	0	-0.03067	-0.15533	0.033112	0.016174	0.02655	-0.066071	0.005798	0.03891	0.047302	-0.015717	-0.016327	0.039673	0.095367	0.098419	-0.007019	-0.076599	-0.13748	1.1732	-0.3244	0.69778	-0.063019	-0.065765	-0.31082	-0.20783	-0.002136	0.004425	-0.014954	0.032501	0.064087	-0.010986	-0.01236
26.043	-0.001678	-0.074005	-0.07431	0.02533	0.011444	0.027771	-0.060272	0.006866	0.028381	0.028687	0.060272	-0.009613	0.027313	0.12512	-0.49377	0.001678	-0.032349	-0.12878	0.85861	-0.14038	0.60806	-0.061646	-0.42572	-0.5693	0.053864	0.001526	0.031281	-0.019836	0.084991	0.028076	-0.002136	-0.014038
26.044	-0.001373	-0.0737	-0.12497	0.008698	0.014038	0.007629	-0.078583	0.002594	0.019989	-0.007782	0.093231	-0.008392	0.030823	0.10208	-0.30533	0.00061	-0.03067	-0.17197	0.37506	0.045624	0.53055	-0.032196	-0.37705	-0.72022	0.65002	-0.000916	0.017242	-0.018311	-0.10941	0.073853	-0.002289	-0.004272
26.045	0.006104	-0.096893	-0.15503	0.000916	0.009918	-0.007935	-0.086975	0.007019	0.029144	-0.003815	-0.079041	-0.010071	0.072021	0.075226	-0.10651	-0.013733	0.001831	-0.17197	0.19104	0.31006	0.47134	-0.007477	-0.056458	-0.57938	0.66071	-0.002747	0.013733	-0.022583	-0.35248	0.06012	-0.00412	-0.002289
26.046	0.004425	-0.079651	-0.16571	0.012207	0.007477	-0.014648	-0.092163	0.005951	0.016632	0.023499	0.012207	-0.012665	0.033264	0.050201	0.011444	-0.015106	0.012817	-0.1268	0.2681	0.35828	0.29022	-0.044556	-0.062408	-0.27329	0.16357	-0.019989	0.005035	-0.018005	-0.26199	-0.013428	0.000916	-0.014038
26.047	0.001984	-0.090942	-0.15045	0.003967	0.006866	-0.012817	-0.089874	-0.00351	0.032959	0.03067	-0.19226	-0.01297	0.010223	0.10971	-0.14008	-0.013123	0.066986	-0.19592	-0.21439	0.22461	0.083923	-0.077667	-0.14313	-0.20325	-0.41428	-0.018616	0.036926	-0.020447	-0.18539	-0.022583	-0.002441	-0.010834
26.048	0.002289	-0.11093	-0.14694	0.003967	0.014191	0.006561	-0.067139	-0.000763	0.027313	0.034027	-0.08316	-0.006561	0.012817	0.11627	-0.11078	-0.010681	0.10895	-0.48569	-0.27603	0.049896	0.064087	-0.14496	-0.57465	-0.33234	-0.70618	-0.018768	0.057678	-0.017853	-0.07431	-0.025635	0	-0.000763
26.049	-0.003357	-0.15015	-0.19333	-0.013428	0.010376	-0.02121	-0.078735	0.003204	0.011749	0.033264	0.008392	-0.011444	0.016479	0.1062	-0.10712	-0.011444	0.08667	-0.63477	-0.10559	-0.082245	0.055237	-0.15366	-0.74265	-0.30716	-0.67627	-0.004272	0.046234	-0.015564	-0.6134	-0.052032	-0.004272	-0.015259
26.05	-0.007477	-0.07843	-0.21393	0.004425	0.005493	0.010376	-0.071259	0.006409	0.01236	0.013428	0.006104	-0.009308	0.011444	0.093536	-0.049744	-0.008392	0.091553	-0.61127	-0.31937	-0.22949	0.26657	-0.20447	-0.43701	-0.5484	-0.73135	0.013885	-0.057068	-0.023041	0.14862	-0.14496	-0.001831	-0.009308
26.051	-0.00946	-0.059204	-0.22217	-0.005646	0.005646	-0.024567	-0.056152	-0.002441	0.014343	0.024109	-0.001068	-0.007782	0.025482	0.027161	0.042725	-0.006714	0.066528	-0.49652	0.010529	-0.22812	0.52445	-0.15274	-0.65613	-0.077362	-0.35828	0.033722	-0.12512	-0.028076	1.1494	-0.17868	-0.008545	-0.018005
26.052	-0.00473	-0.090179	-0.16205	-0.009003	0.018921	-0.019531	-0.04425	0.002289	0.007019	0.020142	-0.017853	-0.010834	0.025635	0.044861	0.047607	-0.018158	-0.005646	-0.52704	0.12924	-0.10162	0.32074	-0.020905	-0.53848	0.047607	-0.10223	0.005341	-0.006104	-0.037384	0.28214	-0.056458	-0.002594	-0.027771
26.053	-0.008087	-0.035095	-0.14816	-0.004425	0.015106	-0.064545	-0.011597	0.003967	0.001678	0.053253	-0.075073	-0.008087	0.01709	0.058746	0.006104	0.001831	-0.11078	-0.681	0.39017	0.068665	0.54321	0.027161	-0.27634	0.07782	-0.008087	-0.015869	0.055847	-0.046082	0.080414	0.038147	-0.004578	-0.018616
26.054	0.003967	-0.059967	-0.15091	-0.014191	0.055542	-0.19211	-0.024567	0.005646	-0.000458	0.051575	-0.086975	-0.014191	-0.014343	0.077362	-0.011749	0.003815	-0.052185	-0.74387	-0.051575	0.20844	0.46188	-0.009155	-0.007629	0.34363	0.067596	-0.021973	-0.000153	0.000916	0.15442	-0.000153	-0.006714	-0.016174
26.055	0.013275	-0.035706	-0.14816	0.007019	0.077209	-0.13168	-0.010529	0.004883	-0.007019	0.0354	-0.009766	-0.003204	-0.050049	0.081787	-0.042572	-0.001526	0.036011	-0.74509	-0.77194	0.1828	0.39703	0.062561	-0.070038	0.75745	0.21133	-0.02182	-0.048065	0.019379	-0.13718	0.019531	-0.003967	-0.027466
26.056	0.00412	0.006866	-0.1442	0.014954	0.041504	-0.03479	-0.009308	0.008392	-0.008545	0.043335	0.12436	-0.005493	-0.05661	0.088348	0.13367	0.008392	0.039978	-0.80093	-0.59174	-0.040131	0.39276	0.14954	-0.13412	1.0046	0.23895	-0.011292	-0.029297	-0.004883	-0.41061	0.081787	-0.001984	-0.025635
26.057	0.002747	-0.025177	-0.10834	0.006866	0.019989	0.011139	0.003967	0.004578	-0.022278	-0.019073	0.22675	-0.003052	0.057678	0.16419	1.0257	0.010986	0.02655	-0.79193	-0.1471	-0.17044	0.25589	0.21133	-0.055389	0.64453	0.27969	-0.00351	-0.043793	-0.017548	0.059204	0.11841	-0.006409	-0.017395
26.058	0.005646	-0.049744	-0.081024	0.011292	0.023804	0.049591	0.02594	0.006256	-0.026855	-0.03952	0.29404	0.004578	0.079346	0.20401	0.21652	0.028534	-0.014038	-0.77743	0.15335	-0.14404	0.34378	0.1532	-0.021057	0.2594	0.095367	-0.012207	-0.045929	-0.019226	-0.063324	0.091553	-0.003052	-0.015869
26.059	0.004272	-0.022583	-0.054016	-0.000458	0.027618	0.03067	0.03952	0.011902	-0.020447	-0.038452	0.11215	0.005798	0.046234	0.22736	0.46143	0.016785	0.034332	-0.82932	0.49942	-0.04837	0.1329	0.093231	0.10574	-0.33402	-0.19592	-0.011749	-0.013885	-0.013123	-0.059814	-0.074768	-0.011749	-0.018463
